<svg width="15" height="14" viewBox="0 0 15 14" fill="none" xmlns="http://www.w3.org/2000/svg">
<path d="M7.49967 6.05784L13.0283 0.529247C13.2886 0.268897 13.7107 0.268897 13.9711 0.529247C14.2314 0.789596 14.2314 1.21171 13.9711 1.47206L8.44248 7.00065L13.9711 12.5292C14.2314 12.7896 14.2314 13.2117 13.9711 13.4721C13.7107 13.7324 13.2886 13.7324 13.0283 13.4721L7.49967 7.94346L1.97108 13.4721C1.71073 13.7324 1.28862 13.7324 1.02827 13.4721C0.76792 13.2117 0.76792 12.7896 1.02827 12.5292L6.55687 7.00065L1.02827 1.47206C0.76792 1.21171 0.76792 0.789596 1.02827 0.529247C1.28862 0.268897 1.71073 0.268897 1.97108 0.529247L7.49967 6.05784Z" fill="url(#paint0_linear_1139_7546)"/>
<defs>
<linearGradient id="paint0_linear_1139_7546" x1="7.49967" y1="0.333984" x2="7.49967" y2="13.6673" gradientUnits="userSpaceOnUse">
<stop stop-color="#000000"/>
<stop offset="1" stop-color="#000000"/>
</linearGradient>
</defs>
</svg>